<svg id="visual" viewBox="0 0 900 600" width="900" height="600" xmlns="http://www.w3.org/2000/svg" xmlns:xlink="http://www.w3.org/1999/xlink" version="1.1"><g stroke-width="1" stroke-linejoin="bevel"><path d="M480 264L466 187L424 169Z" fill="#48013c" stroke="#FFFFFF"></path><path d="M424 169L363 274L480 264Z" fill="#4e004a" stroke="#FFFFFF"></path><path d="M424 169L317 177L363 274Z" fill="#4e004a" stroke="#FFFFFF"></path><path d="M479 106L427 105L424 169Z" fill="#48013c" stroke="#FFFFFF"></path><path d="M424 169L427 105L317 177Z" fill="#52096b" stroke="#FFFFFF"></path><path d="M317 177L298 282L363 274Z" fill="#51025a" stroke="#FFFFFF"></path><path d="M363 274L387 405L480 264Z" fill="#2f081c" stroke="#FFFFFF"></path><path d="M466 187L479 106L424 169Z" fill="#52096b" stroke="#FFFFFF"></path><path d="M604 195L479 106L466 187Z" fill="#2d29a6" stroke="#FFFFFF"></path><path d="M298 282L387 405L363 274Z" fill="#51025a" stroke="#FFFFFF"></path><path d="M429 0L322 86L427 105Z" fill="#2d29a6" stroke="#FFFFFF"></path><path d="M427 105L322 86L317 177Z" fill="#41032f" stroke="#FFFFFF"></path><path d="M317 177L204 179L298 282Z" fill="#250814" stroke="#FFFFFF"></path><path d="M387 405L527 383L480 264Z" fill="#2f081c" stroke="#FFFFFF"></path><path d="M480 264L604 195L466 187Z" fill="#41032f" stroke="#FFFFFF"></path><path d="M610 273L604 195L480 264Z" fill="#2d29a6" stroke="#FFFFFF"></path><path d="M527 383L610 273L480 264Z" fill="#441e91" stroke="#FFFFFF"></path><path d="M527 383L593 370L610 273Z" fill="#4e137e" stroke="#FFFFFF"></path><path d="M711 97L611 118L604 195Z" fill="#4e137e" stroke="#FFFFFF"></path><path d="M604 195L611 118L479 106Z" fill="#2f081c" stroke="#FFFFFF"></path><path d="M466 0L429 0L427 105Z" fill="#250814" stroke="#FFFFFF"></path><path d="M224 124L204 179L317 177Z" fill="#2f081c" stroke="#FFFFFF"></path><path d="M298 282L272 415L387 405Z" fill="#4e137e" stroke="#FFFFFF"></path><path d="M322 86L224 124L317 177Z" fill="#4e004a" stroke="#FFFFFF"></path><path d="M222 375L272 415L298 282Z" fill="#4e137e" stroke="#FFFFFF"></path><path d="M466 0L427 105L479 106Z" fill="#2d29a6" stroke="#FFFFFF"></path><path d="M322 86L330 0L224 124Z" fill="#41032f" stroke="#FFFFFF"></path><path d="M571 0L466 0L479 106Z" fill="#52096b" stroke="#FFFFFF"></path><path d="M279 473L434 475L387 405Z" fill="#250814" stroke="#FFFFFF"></path><path d="M387 405L434 475L527 383Z" fill="#380625" stroke="#FFFFFF"></path><path d="M622 481L662 396L593 370Z" fill="#41032f" stroke="#FFFFFF"></path><path d="M180 325L222 375L298 282Z" fill="#4e004a" stroke="#FFFFFF"></path><path d="M429 0L330 0L322 86Z" fill="#52096b" stroke="#FFFFFF"></path><path d="M204 179L180 325L298 282Z" fill="#380625" stroke="#FFFFFF"></path><path d="M222 375L279 473L272 415Z" fill="#41032f" stroke="#FFFFFF"></path><path d="M272 415L279 473L387 405Z" fill="#4e004a" stroke="#FFFFFF"></path><path d="M194 537L279 473L222 375Z" fill="#250814" stroke="#FFFFFF"></path><path d="M611 118L571 0L479 106Z" fill="#51025a" stroke="#FFFFFF"></path><path d="M738 261L700 235L610 273Z" fill="#2f081c" stroke="#FFFFFF"></path><path d="M610 273L700 235L604 195Z" fill="#48013c" stroke="#FFFFFF"></path><path d="M611 118L715 0L571 0Z" fill="#4e137e" stroke="#FFFFFF"></path><path d="M622 481L593 370L527 383Z" fill="#250814" stroke="#FFFFFF"></path><path d="M593 370L662 396L610 273Z" fill="#4e004a" stroke="#FFFFFF"></path><path d="M204 179L130 324L180 325Z" fill="#380625" stroke="#FFFFFF"></path><path d="M180 325L90 406L222 375Z" fill="#380625" stroke="#FFFFFF"></path><path d="M76 182L130 324L204 179Z" fill="#41032f" stroke="#FFFFFF"></path><path d="M523 600L532 518L434 475Z" fill="#4e137e" stroke="#FFFFFF"></path><path d="M434 475L532 518L527 383Z" fill="#441e91" stroke="#FFFFFF"></path><path d="M532 518L622 481L527 383Z" fill="#48013c" stroke="#FFFFFF"></path><path d="M662 396L738 261L610 273Z" fill="#2f081c" stroke="#FFFFFF"></path><path d="M700 235L711 97L604 195Z" fill="#4e004a" stroke="#FFFFFF"></path><path d="M805 289L738 261L796 408Z" fill="#380625" stroke="#FFFFFF"></path><path d="M811 203L711 97L700 235Z" fill="#4e004a" stroke="#FFFFFF"></path><path d="M99 89L204 179L224 124Z" fill="#4e004a" stroke="#FFFFFF"></path><path d="M99 89L76 182L204 179Z" fill="#441e91" stroke="#FFFFFF"></path><path d="M330 0L162 0L224 124Z" fill="#250814" stroke="#FFFFFF"></path><path d="M162 0L99 89L224 124Z" fill="#250814" stroke="#FFFFFF"></path><path d="M279 473L377 600L434 475Z" fill="#2f081c" stroke="#FFFFFF"></path><path d="M532 518L623 600L622 481Z" fill="#2d29a6" stroke="#FFFFFF"></path><path d="M303 600L377 600L279 473Z" fill="#52096b" stroke="#FFFFFF"></path><path d="M0 381L90 406L130 324Z" fill="#2d29a6" stroke="#FFFFFF"></path><path d="M130 324L90 406L180 325Z" fill="#2f081c" stroke="#FFFFFF"></path><path d="M772 68L715 0L711 97Z" fill="#250814" stroke="#FFFFFF"></path><path d="M711 97L715 0L611 118Z" fill="#441e91" stroke="#FFFFFF"></path><path d="M90 406L194 537L222 375Z" fill="#51025a" stroke="#FFFFFF"></path><path d="M377 600L523 600L434 475Z" fill="#2f081c" stroke="#FFFFFF"></path><path d="M194 537L303 600L279 473Z" fill="#41032f" stroke="#FFFFFF"></path><path d="M0 82L0 212L76 182Z" fill="#52096b" stroke="#FFFFFF"></path><path d="M162 0L117 0L99 89Z" fill="#48013c" stroke="#FFFFFF"></path><path d="M796 408L738 261L662 396Z" fill="#250814" stroke="#FFFFFF"></path><path d="M811 203L772 68L711 97Z" fill="#51025a" stroke="#FFFFFF"></path><path d="M796 408L662 396L738 506Z" fill="#4e004a" stroke="#FFFFFF"></path><path d="M811 203L700 235L738 261Z" fill="#4e004a" stroke="#FFFFFF"></path><path d="M805 289L811 203L738 261Z" fill="#4e137e" stroke="#FFFFFF"></path><path d="M738 506L662 396L622 481Z" fill="#2f081c" stroke="#FFFFFF"></path><path d="M523 600L623 600L532 518Z" fill="#41032f" stroke="#FFFFFF"></path><path d="M623 600L738 506L622 481Z" fill="#2d29a6" stroke="#FFFFFF"></path><path d="M0 82L76 182L99 89Z" fill="#51025a" stroke="#FFFFFF"></path><path d="M76 182L0 262L130 324Z" fill="#41032f" stroke="#FFFFFF"></path><path d="M0 212L0 262L76 182Z" fill="#4e004a" stroke="#FFFFFF"></path><path d="M0 381L79 497L90 406Z" fill="#52096b" stroke="#FFFFFF"></path><path d="M90 406L79 497L194 537Z" fill="#51025a" stroke="#FFFFFF"></path><path d="M194 537L191 600L303 600Z" fill="#4e004a" stroke="#FFFFFF"></path><path d="M99 600L191 600L194 537Z" fill="#41032f" stroke="#FFFFFF"></path><path d="M0 262L0 381L130 324Z" fill="#4e004a" stroke="#FFFFFF"></path><path d="M0 0L0 82L99 89Z" fill="#380625" stroke="#FFFFFF"></path><path d="M900 93L832 0L772 68Z" fill="#41032f" stroke="#FFFFFF"></path><path d="M772 68L832 0L715 0Z" fill="#441e91" stroke="#FFFFFF"></path><path d="M900 93L772 68L811 203Z" fill="#380625" stroke="#FFFFFF"></path><path d="M900 275L811 203L805 289Z" fill="#52096b" stroke="#FFFFFF"></path><path d="M738 506L808 529L796 408Z" fill="#4e137e" stroke="#FFFFFF"></path><path d="M623 600L731 600L738 506Z" fill="#51025a" stroke="#FFFFFF"></path><path d="M900 393L805 289L796 408Z" fill="#41032f" stroke="#FFFFFF"></path><path d="M900 393L900 275L805 289Z" fill="#441e91" stroke="#FFFFFF"></path><path d="M117 0L0 0L99 89Z" fill="#4e004a" stroke="#FFFFFF"></path><path d="M900 275L900 173L811 203Z" fill="#51025a" stroke="#FFFFFF"></path><path d="M731 600L808 529L738 506Z" fill="#52096b" stroke="#FFFFFF"></path><path d="M79 497L99 600L194 537Z" fill="#380625" stroke="#FFFFFF"></path><path d="M0 524L99 600L79 497Z" fill="#380625" stroke="#FFFFFF"></path><path d="M900 173L900 93L811 203Z" fill="#52096b" stroke="#FFFFFF"></path><path d="M900 508L900 393L796 408Z" fill="#2d29a6" stroke="#FFFFFF"></path><path d="M0 381L0 524L79 497Z" fill="#2d29a6" stroke="#FFFFFF"></path><path d="M731 600L792 600L808 529Z" fill="#380625" stroke="#FFFFFF"></path><path d="M808 529L900 508L796 408Z" fill="#380625" stroke="#FFFFFF"></path><path d="M900 93L900 0L832 0Z" fill="#48013c" stroke="#FFFFFF"></path><path d="M900 600L900 508L808 529Z" fill="#41032f" stroke="#FFFFFF"></path><path d="M0 524L0 600L99 600Z" fill="#2d29a6" stroke="#FFFFFF"></path><path d="M792 600L900 600L808 529Z" fill="#441e91" stroke="#FFFFFF"></path></g></svg>